<?xml version="1.0" standalone="no"?>
<!DOCTYPE svg PUBLIC "-//W3C//DTD SVG 20010904//EN"
 "http://www.w3.org/TR/2001/REC-SVG-20010904/DTD/svg10.dtd">
<svg version="1.0" xmlns="http://www.w3.org/2000/svg"
 width="670.000000pt" height="670.000000pt" viewBox="0 0 670.000000 670.000000"
 preserveAspectRatio="xMidYMid meet">
<metadata>
Created by potrace 1.14, written by Peter Selinger 2001-2017
</metadata>
<g transform="translate(0.000000,670.000000) scale(0.100000,-0.100000)"
fill="#000000" stroke="none">
<path d="M620 6322 c-150 -54 -257 -160 -313 -309 l-22 -58 -2 -2645 c-3
-2874 -6 -2698 53 -2817 36 -74 141 -179 215 -217 118 -59 -56 -56 2791 -56
1878 0 2632 3 2670 11 132 28 257 119 328 238 76 129 70 -114 70 2816 0 2868
4 2672 -57 2794 -37 74 -143 180 -214 215 -124 60 72 56 -2804 55 l-2640 0
-75 -27z"/>
</g>
</svg>
